<?xml version="1.0" encoding="UTF-8" standalone="no"?>
<!-- Generator: Adobe Illustrator 15.0.0, SVG Export Plug-In  -->

<svg
   xmlns:dc="http://purl.org/dc/elements/1.1/"
   xmlns:cc="http://creativecommons.org/ns#"
   xmlns:rdf="http://www.w3.org/1999/02/22-rdf-syntax-ns#"
   xmlns:svg="http://www.w3.org/2000/svg"
   xmlns="http://www.w3.org/2000/svg"
   xmlns:sodipodi="http://sodipodi.sourceforge.net/DTD/sodipodi-0.dtd"
   xmlns:inkscape="http://www.inkscape.org/namespaces/inkscape"
   version="1.1"
   x="0px"
   y="0px"
   width="600"
   height="340.33484"
   viewBox="0 0 600 340.33484"
   enable-background="new 0 0 58 33"
   xml:space="preserve"
   id="svg2"
   inkscape:version="0.91 r13725"
   sodipodi:docname="logo_em_json.svg"><metadata
     id="metadata24"><rdf:RDF><cc:Work
         rdf:about=""><dc:format>image/svg+xml</dc:format><dc:type
           rdf:resource="http://purl.org/dc/dcmitype/StillImage" /><dc:title></dc:title></cc:Work></rdf:RDF></metadata><sodipodi:namedview
     pagecolor="#ffffff"
     bordercolor="#666666"
     borderopacity="1"
     objecttolerance="10"
     gridtolerance="10"
     guidetolerance="10"
     inkscape:pageopacity="0"
     inkscape:pageshadow="2"
     inkscape:window-width="1920"
     inkscape:window-height="1023"
     id="namedview22"
     showgrid="false"
     fit-margin-top="0"
     fit-margin-left="0"
     fit-margin-right="0"
     fit-margin-bottom="0"
     inkscape:zoom="0.95105862"
     inkscape:cx="29.282238"
     inkscape:cy="16.5"
     inkscape:window-x="0"
     inkscape:window-y="0"
     inkscape:window-maximized="1"
     inkscape:current-layer="svg2" /><defs
     id="defs4" /><path
     d="m 537.71873,265.11052 c 0,-8.82808 -1.81512,-15.84104 -5.69288,-20.56448 -3.74368,-4.72343 -8.81776,-7.26047 -15.24287,-7.26047 -4.10465,0 -7.73489,0.96944 -11.11761,2.53704 -2.05232,1.0932 -5.44536,3.86744 -10.28224,7.62144 l 0,-42.32528 -11.48887,0 0,-36.76648 -46.44024,0 0,46.44024 37.12744,0 0,123.72718 19.59503,0 0,-10.39568 0.48472,0 c 3.64055,4.59968 7.01296,7.73488 9.92128,9.55 2.90831,1.81512 7.01296,2.6608 12.2108,2.6608 6.4148,0 11.48888,-2.41328 15.24287,-7.25016 3.87776,-4.59968 5.69288,-11.7364 5.69288,-20.44072 l 0,-47.53343 z m -30.5992,-10.8804 c 6.76544,0 10.04503,5.43504 10.04503,15.9648 l 0,37.00367 c 0,10.8804 -3.26927,16.32576 -10.04503,16.32576 -2.898,0 -7.02327,-1.81512 -11.7364,-5.3216 l 0,-58.66135 c 4.72344,-3.49616 8.8384,-5.31128 11.7364,-5.31128 z"
     id="path6"
     inkscape:connector-curvature="0"
     style="fill:#52678c" /><path
     d="m 595.64784,237.29588 c -10.14817,0 -18.01712,4.59968 -23.46248,13.304 l -0.2372,0 0,-11.48888 -19.70848,0 0,99.41902 20.56447,0 0,-68.32479 c 0,-4.23872 1.44385,-7.38424 4.22841,-9.92128 2.66079,-2.17608 5.80631,-3.25896 9.67376,-3.25896 3.38272,0 7.85864,0.72192 13.29368,1.69136 l 0,-21.41016 -4.35216,0 z"
     id="path8"
     inkscape:connector-curvature="0"
     style="fill:#52678c" /><path
     d="M 395.4897,44.26415 C 395.4897,14.63439 381.70099,0 354.49483,0 339.01475,0 322.81275,8.46711 305.38348,25.15383 300.18564,15.60383 295.225,9.31279 290.98628,5.93007 285.31404,2.05232 277.32132,0 266.80188,0 c -9.30248,0 -17.5324,2.29983 -25.03008,6.65199 -3.75399,2.41329 -11.61263,8.46712 -23.34903,18.50184 l 0,-21.28639 -41.72711,0 0,210.92509 43.90319,0 0,-165.44398 c 12.45832,-8.95184 21.89488,-13.5412 28.4128,-13.5412 10.15848,0 15.35632,5.32159 15.35632,15.35632 l 0,163.63917 43.65568,0 0,-165.45429 c 11.7364,-8.95184 21.0492,-13.5412 27.9384,-13.5412 10.6432,0 15.85135,5.32159 15.85135,15.35632 l 0,163.63917 43.65568,0 0,-170.53869 z"
     id="path10"
     inkscape:connector-curvature="0"
     style="fill:#52678c" /><path
     d="m 206.93389,270.43212 0,2.78455 20.44072,0 c -0.2372,-23.94719 -11.12792,-35.92079 -31.9296,-35.92079 -21.5236,0 -32.29055,12.45832 -32.29055,37.00368 l 0,29.03159 c 0,24.54536 10.75664,37.00368 32.29055,37.00368 21.41016,0 31.9296,-12.45832 31.9296,-37.00368 l 0,-2.42359 -20.44072,0 0,6.29103 c 0,10.8804 -3.86744,16.32576 -11.48888,16.32576 -7.73488,0 -11.48888,-5.44536 -11.48888,-16.32576 l 0,-36.76647 c 0,-10.76696 3.754,-16.202 11.48888,-16.202 7.62144,0 11.48888,5.43504 11.48888,16.202 z"
     id="path12"
     inkscape:connector-curvature="0"
     style="fill:#52678c" /><path
     d="m 240.67861,274.29956 0,29.03159 c 0,24.54536 10.75664,37.00368 32.29055,37.00368 21.2864,0 31.93991,-12.45832 31.93991,-37.00368 l 0,-29.03159 c 0,-24.54536 -10.6432,-37.00368 -31.93991,-37.00368 -21.53391,0 -32.29055,12.45832 -32.29055,37.00368 z m 43.78975,32.89903 c 0,10.8804 -3.86745,16.32576 -11.48888,16.32576 -7.73489,0 -11.48888,-5.44536 -11.48888,-16.32576 l 0,-36.76647 c 0,-10.76696 3.75399,-16.202 11.48888,-16.202 7.62143,0 11.48888,5.43504 11.48888,16.202 l 0,36.76647 z"
     id="path14"
     inkscape:connector-curvature="0"
     style="fill:#52678c" /><path
     d="m 319.4094,239.111 0,99.41902 20.68823,0 0,-78.01918 c 5.80632,-4.2284 10.406,-6.28072 13.18024,-6.28072 4.83688,0 7.25016,2.53704 7.25016,7.25016 l 0,77.03943 20.812,0 0,-78.00887 c 5.56911,-4.2284 9.91096,-6.28072 13.30399,-6.28072 4.71313,0 7.25017,2.53704 7.25017,7.25016 l 0,77.03943 20.68823,0 0,-80.42215 c 0,-13.66496 -6.66231,-20.80168 -19.34752,-20.80168 -7.26048,0 -14.88191,3.86744 -22.98807,11.7364 -2.53704,-4.23872 -4.95033,-7.37393 -7.02327,-8.95184 -2.53705,-1.81512 -6.28073,-2.78456 -11.25168,-2.78456 -4.58936,0 -8.34336,1.20664 -11.7364,3.25896 -2.042,1.0932 -5.67224,3.86745 -11.24136,8.46712 l 0,-9.92127 -19.58472,0 z"
     id="path16"
     inkscape:connector-curvature="0"
     style="fill:#52678c" /><path
     d="m 459.47265,316.63515 -21.77111,0 0,21.89487 21.77111,0 0,-21.89487 z"
     id="path18"
     inkscape:connector-curvature="0"
     style="fill:#52678c" /><path
     d="m 0,78.24607 0,62.16783 c 0,52.13311 22.740555,78.24607 68.335109,78.24607 44.501361,0 67.365671,-25.03008 67.974151,-75.22431 l -43.789751,0 0,4.71312 c 0,22.98807 -8.106157,34.46664 -24.1844,34.46664 -16.325758,0 -24.431915,-11.48888 -24.431915,-34.46664 l 0,-30.72295 92.406066,0 0,-39.19008 C 136.30926,26.12327 113.5687,0 68.335109,0 22.740555,0 0,26.12327 0,78.24607 Z m 43.903194,3.39303 0,-11.12791 c 0,-23.21497 8.106157,-34.70384 24.431915,-34.70384 16.088556,0 24.1844,11.48887 24.1844,34.70384 l 0,11.12791 -48.616315,0 z"
     id="path20"
     inkscape:connector-curvature="0"
     style="fill:#52678c" /></svg>